<svg version="1.1" id="Layer_1" xmlns="http://www.w3.org/2000/svg" xmlns:xlink="http://www.w3.org/1999/xlink" x="0px" y="0px"
	 width="100%" viewBox="0 0 1080 1080" enable-background="new 0 0 1080 1080" xml:space="preserve">
<path fill="#5A9DFF" opacity="1.000000" stroke="none" 
	d="
M0.999999,1002.000000 
	C1.000000,779.305298 1.000000,556.610596 1.449567,333.310699 
	C4.230246,332.661011 6.561354,332.577667 8.892467,332.577545 
	C125.224426,332.571198 241.556381,332.589355 357.888336,332.547089 
	C370.540009,332.542480 383.191467,332.036896 395.843140,332.030731 
	C463.842072,331.997681 531.842163,331.847198 599.838989,332.233185 
	C614.319824,332.315369 628.711060,334.757935 641.945557,341.524353 
	C653.772095,347.570953 662.221680,356.674500 664.052246,369.958435 
	C665.633850,381.435730 666.348694,393.233246 665.547729,404.757233 
	C665.117981,410.940155 661.713989,417.621765 657.855957,422.718719 
	C648.976013,434.450134 635.475830,438.751465 621.665527,440.779846 
	C609.523315,442.563293 597.127441,443.304077 584.841919,443.321198 
	C459.510284,443.495758 334.178345,443.426056 208.846497,443.442017 
	C206.400772,443.442322 203.955093,443.652344 201.493698,443.765198 
	C201.493698,604.830811 201.493698,765.398315 201.493698,926.207275 
	C265.439972,926.207275 329.014221,926.207275 393.071167,926.207275 
	C393.071167,822.748718 393.071167,719.653625 393.071167,616.287109 
	C394.471588,616.169250 395.436981,616.016663 396.402344,616.016907 
	C468.567841,616.036804 540.733765,615.950989 612.898499,616.205444 
	C626.284241,616.252625 639.376709,619.017700 651.700989,624.606079 
	C673.932983,634.687195 685.875122,652.034180 687.687866,676.271729 
	C689.417542,699.398926 680.621094,717.528687 661.132996,730.259155 
	C644.507446,741.119690 625.988159,746.300232 606.350525,746.720398 
	C582.361816,747.233765 558.353699,746.842773 534.354004,746.842834 
	C532.423523,746.842834 530.493042,746.842834 528.340332,746.842834 
	C528.340332,807.016113 528.340332,866.434692 528.340332,926.112915 
	C529.869080,926.281433 531.163940,926.552612 532.457886,926.548218 
	C572.597595,926.410828 612.776550,927.716003 652.732666,922.108521 
	C688.510925,917.087280 723.515686,909.320190 756.437073,893.948364 
	C797.861084,874.606445 831.349365,846.383362 853.602539,805.882629 
	C870.619202,774.912292 878.161255,741.389404 880.183228,706.365356 
	C883.670349,645.963989 862.497070,594.739746 822.003540,550.944092 
	C813.589539,541.843933 803.502625,534.290527 793.864380,525.738281 
	C794.769653,524.968689 795.990112,523.918274 797.224182,522.884094 
	C831.155090,494.448517 851.382996,458.306366 856.986450,414.420929 
	C861.285889,380.748383 857.537476,347.540039 847.842651,315.118958 
	C835.502502,273.851624 812.363464,239.747742 778.285522,213.221298 
	C742.164612,185.104584 700.501221,170.176575 656.033875,161.990036 
	C628.237732,156.872742 600.132385,155.450897 571.940918,155.445770 
	C384.109802,155.411575 196.278687,155.429672 8.447565,155.410263 
	C5.965029,155.410004 3.482521,155.142670 1.000000,155.000000 
	C1.000000,129.638641 1.000000,104.277275 1.143620,78.104294 
	C1.486823,76.665688 1.759643,76.051918 1.875480,75.409821 
	C7.524193,44.098537 24.579098,21.403038 53.751247,8.620304 
	C62.304863,4.872256 71.888466,3.474793 81.000000,1.000000 
	C388.028046,1.000000 695.056091,1.000000 1002.797668,1.298648 
	C1041.329834,6.925750 1069.987183,32.692970 1078.509277,69.042381 
	C1079.364258,72.689125 1080.170898,76.347191 1081.000000,80.000000 
	C1081.000000,387.694702 1081.000000,695.389404 1080.702881,1003.789429 
	C1074.230957,1039.852661 1054.646606,1064.191772 1020.770020,1076.533569 
	C1015.061890,1078.613159 1008.933960,1079.540283 1003.000000,1081.000000 
	C695.305298,1081.000000 387.610596,1081.000000 79.110733,1080.837036 
	C77.340370,1080.451782 76.382088,1080.192139 75.409050,1080.012329 
	C37.901978,1073.081543 14.232398,1050.949951 3.648350,1014.546387 
	C2.458370,1010.453552 1.868276,1006.186340 0.999999,1002.000000 
z"/>
<path fill="#FFFFFF" opacity="0.000000" stroke="none" 
	d="
M1.000000,155.468658 
	C3.482521,155.142670 5.965029,155.410004 8.447565,155.410263 
	C196.278687,155.429672 384.109802,155.411575 571.940918,155.445770 
	C600.132385,155.450897 628.237732,156.872742 656.033875,161.990036 
	C700.501221,170.176575 742.164612,185.104584 778.285522,213.221298 
	C812.363464,239.747742 835.502502,273.851624 847.842651,315.118958 
	C857.537476,347.540039 861.285889,380.748383 856.986450,414.420929 
	C851.382996,458.306366 831.155090,494.448517 797.224182,522.884094 
	C795.990112,523.918274 794.769653,524.968689 793.864380,525.738281 
	C803.502625,534.290527 813.589539,541.843933 822.003540,550.944092 
	C862.497070,594.739746 883.670349,645.963989 880.183228,706.365356 
	C878.161255,741.389404 870.619202,774.912292 853.602539,805.882629 
	C831.349365,846.383362 797.861084,874.606445 756.437073,893.948364 
	C723.515686,909.320190 688.510925,917.087280 652.732666,922.108521 
	C612.776550,927.716003 572.597595,926.410828 532.457886,926.548218 
	C531.163940,926.552612 529.869080,926.281433 528.340332,926.112915 
	C528.340332,866.434692 528.340332,807.016113 528.340332,746.842834 
	C530.493042,746.842834 532.423523,746.842834 534.354004,746.842834 
	C558.353699,746.842773 582.361816,747.233765 606.350525,746.720398 
	C625.988159,746.300232 644.507446,741.119690 661.132996,730.259155 
	C680.621094,717.528687 689.417542,699.398926 687.687866,676.271729 
	C685.875122,652.034180 673.932983,634.687195 651.700989,624.606079 
	C639.376709,619.017700 626.284241,616.252625 612.898499,616.205444 
	C540.733765,615.950989 468.567841,616.036804 396.402344,616.016907 
	C395.436981,616.016663 394.471588,616.169250 393.071167,616.287109 
	C393.071167,719.653625 393.071167,822.748718 393.071167,926.207275 
	C329.014221,926.207275 265.439972,926.207275 201.493698,926.207275 
	C201.493698,765.398315 201.493698,604.830811 201.493698,443.765198 
	C203.955093,443.652344 206.400772,443.442322 208.846497,443.442017 
	C334.178345,443.426056 459.510284,443.495758 584.841919,443.321198 
	C597.127441,443.304077 609.523315,442.563293 621.665527,440.779846 
	C635.475830,438.751465 648.976013,434.450134 657.855957,422.718719 
	C661.713989,417.621765 665.117981,410.940155 665.547729,404.757233 
	C666.348694,393.233246 665.633850,381.435730 664.052246,369.958435 
	C662.221680,356.674500 653.772095,347.570953 641.945557,341.524353 
	C628.711060,334.757935 614.319824,332.315369 599.838989,332.233185 
	C531.842163,331.847198 463.842072,331.997681 395.843140,332.030731 
	C383.191467,332.036896 370.540009,332.542480 357.888336,332.547089 
	C241.556381,332.589355 125.224426,332.571198 8.892467,332.577545 
	C6.561354,332.577667 4.230246,332.661011 1.449567,332.852753 
	C1.000000,273.979095 1.000000,214.958206 1.000000,155.468658 
z"/>
<path fill="#FEFEFF" opacity="0.000000" stroke="none" 
	d="
M1081.000000,79.531342 
	C1080.170898,76.347191 1079.364258,72.689125 1078.509277,69.042381 
	C1069.987183,32.692970 1041.329834,6.925750 1003.255615,1.298648 
	C1028.927368,1.000000 1054.854614,1.000000 1081.000000,1.000000 
	C1081.000000,27.020489 1081.000000,53.041584 1081.000000,79.531342 
z"/>
<path fill="#FEFEFF" opacity="0.000000" stroke="none" 
	d="
M1003.468628,1081.000000 
	C1008.933960,1079.540283 1015.061890,1078.613159 1020.770020,1076.533569 
	C1054.646606,1064.191772 1074.230957,1039.852661 1080.702881,1004.247437 
	C1081.000000,1029.593994 1081.000000,1055.188110 1081.000000,1081.000000 
	C1055.312866,1081.000000 1029.625122,1081.000000 1003.468628,1081.000000 
z"/>
<path fill="#FDFEFF" opacity="0.000000" stroke="none" 
	d="
M80.531342,1.000000 
	C71.888466,3.474793 62.304863,4.872256 53.751247,8.620304 
	C24.579098,21.403038 7.524193,44.098537 1.875480,75.409821 
	C1.759643,76.051918 1.486823,76.665688 1.143620,77.646332 
	C1.000000,52.405048 1.000000,26.810099 1.000000,1.000000 
	C27.353838,1.000000 53.708260,1.000000 80.531342,1.000000 
z"/>
<path fill="#FEFEFF" opacity="0.000000" stroke="none" 
	d="
M0.999999,1002.468628 
	C1.868276,1006.186340 2.458370,1010.453552 3.648350,1014.546387 
	C14.232398,1050.949951 37.901978,1073.081543 75.409050,1080.012329 
	C76.382088,1080.192139 77.340370,1080.451782 78.652771,1080.837036 
	C53.072651,1081.000000 27.145302,1081.000000 1.000000,1081.000000 
	C1.000000,1054.979492 1.000000,1028.958374 0.999999,1002.468628 
z"/>
</svg>