<?xml version="1.0" standalone="no"?>
<!DOCTYPE svg PUBLIC "-//W3C//DTD SVG 20010904//EN"
 "http://www.w3.org/TR/2001/REC-SVG-20010904/DTD/svg10.dtd">
<svg version="1.0" xmlns="http://www.w3.org/2000/svg"
 width="1080.000000pt" height="1080.000000pt" viewBox="0 0 1080.000000 1080.000000"
 preserveAspectRatio="xMidYMid meet">

<g transform="translate(0.000000,1080.000000) scale(0.100000,-0.100000)"
fill="#000000" stroke="none">
<path d="M1 10403 c1 -219 3 -387 6 -373 36 242 159 454 342 589 118 88 266
150 406 170 40 6 -74 9 -347 10 l-408 1 1 -397z"/>
<path d="M10045 10789 c392 -57 699 -375 744 -769 6 -51 9 59 10 353 l1 427
-407 -1 c-275 -1 -389 -4 -348 -10z"/>
<path d="M0 8368 l0 -891 3038 4 c2866 4 3042 3 3128 -14 279 -53 418 -160
464 -357 8 -32 14 -123 14 -220 1 -161 0 -166 -28 -227 -70 -152 -235 -241
-506 -273 -54 -6 -806 -10 -2097 -10 l-2013 0 0 -2420 0 -2420 960 0 960 0 0
1555 0 1555 1084 0 c1114 0 1216 -3 1363 -40 192 -50 358 -171 428 -314 89
-182 93 -402 10 -566 -89 -176 -300 -309 -577 -365 -63 -12 -160 -15 -518 -15
l-440 0 0 -905 0 -905 343 0 c623 0 982 37 1396 140 523 132 913 344 1221 666
306 319 481 708 551 1224 18 128 18 493 1 590 -97 540 -390 1040 -779 1329
-40 30 -73 57 -73 60 0 3 25 26 55 50 276 220 493 599 567 988 19 99 22 151
22 328 0 116 -6 255 -13 310 -86 691 -402 1212 -956 1575 -177 115 -477 247
-731 320 -218 62 -537 112 -831 130 -111 6 -1208 10 -3108 10 l-2935 0 0 -892z"/>
<path d="M1 413 l-1 -413 398 1 397 0 -88 19 c-167 35 -302 103 -424 214 -139
126 -247 336 -272 527 -6 42 -9 -78 -10 -348z"/>
<path d="M10790 782 c0 -58 -36 -188 -74 -269 -127 -267 -359 -446 -649 -498
-65 -12 -31 -13 331 -14 l402 -1 0 410 c0 226 -2 410 -5 410 -3 0 -5 -17 -5
-38z"/>
</g>
</svg>
